<mxfile host="app.diagrams.net" modified="2022-02-07T07:49:12.968Z" agent="5.0 (Macintosh; Intel Mac OS X 10_15_7) AppleWebKit/537.36 (KHTML, like Gecko) Chrome/97.0.4692.99 Safari/537.36" etag="96U-6cIlwnV3ScH5a39H" version="16.4.3" type="github">
  <diagram id="voTOpp2yydBu0dY6nFDH" name="家政业务数据建设">
    <mxGraphModel dx="2253" dy="801" grid="1" gridSize="10" guides="1" tooltips="1" connect="1" arrows="0" fold="1" page="1" pageScale="1" pageWidth="827" pageHeight="1169" math="0" shadow="0">
      <root>
        <mxCell id="0" />
        <mxCell id="1" parent="0" />
        <mxCell id="2VdCbxfkRbpIIBaNWqWR-93" style="edgeStyle=orthogonalEdgeStyle;rounded=0;orthogonalLoop=1;jettySize=auto;html=1;exitX=1;exitY=0.5;exitDx=0;exitDy=0;entryX=0;entryY=0.5;entryDx=0;entryDy=0;fontSize=18;endArrow=none;endFill=0;strokeWidth=1;" edge="1" parent="1" source="2VdCbxfkRbpIIBaNWqWR-2" target="2VdCbxfkRbpIIBaNWqWR-21">
          <mxGeometry relative="1" as="geometry" />
        </mxCell>
        <mxCell id="2VdCbxfkRbpIIBaNWqWR-2" value="&lt;font style=&quot;font-size: 20px&quot;&gt;到家精选-家政业务数据建设&lt;/font&gt;" style="rounded=1;whiteSpace=wrap;html=1;fontSize=14;" vertex="1" parent="1">
          <mxGeometry x="300" y="620" width="280" height="60" as="geometry" />
        </mxCell>
        <mxCell id="2VdCbxfkRbpIIBaNWqWR-3" value="&lt;font style=&quot;font-size: 18px&quot;&gt;埋点数据&lt;/font&gt;" style="rounded=1;whiteSpace=wrap;html=1;fontSize=14;" vertex="1" parent="1">
          <mxGeometry x="160" y="630" width="100" height="40" as="geometry" />
        </mxCell>
        <mxCell id="2VdCbxfkRbpIIBaNWqWR-4" value="&lt;font style=&quot;font-size: 14px&quot;&gt;前端埋点&lt;/font&gt;" style="rounded=1;whiteSpace=wrap;html=1;fontSize=18;" vertex="1" parent="1">
          <mxGeometry x="40" y="560" width="80" height="30" as="geometry" />
        </mxCell>
        <mxCell id="2VdCbxfkRbpIIBaNWqWR-5" value="&lt;font style=&quot;font-size: 14px&quot;&gt;后端埋点&lt;/font&gt;" style="rounded=1;whiteSpace=wrap;html=1;fontSize=18;" vertex="1" parent="1">
          <mxGeometry x="40" y="710" width="80" height="30" as="geometry" />
        </mxCell>
        <mxCell id="2VdCbxfkRbpIIBaNWqWR-10" value="&lt;font style=&quot;font-size: 14px&quot;&gt;页面展现&lt;/font&gt;" style="rounded=1;whiteSpace=wrap;html=1;fontSize=18;" vertex="1" parent="1">
          <mxGeometry x="-90" y="520" width="80" height="30" as="geometry" />
        </mxCell>
        <mxCell id="2VdCbxfkRbpIIBaNWqWR-11" value="&lt;font style=&quot;font-size: 14px&quot;&gt;点击事件&lt;/font&gt;" style="rounded=1;whiteSpace=wrap;html=1;fontSize=18;" vertex="1" parent="1">
          <mxGeometry x="-90" y="600" width="80" height="30" as="geometry" />
        </mxCell>
        <mxCell id="2VdCbxfkRbpIIBaNWqWR-12" value="&lt;font style=&quot;font-size: 14px&quot;&gt;用户下单&lt;/font&gt;" style="rounded=1;whiteSpace=wrap;html=1;fontSize=18;" vertex="1" parent="1">
          <mxGeometry x="-90" y="710" width="80" height="30" as="geometry" />
        </mxCell>
        <mxCell id="2VdCbxfkRbpIIBaNWqWR-15" value="" style="endArrow=none;html=1;rounded=0;fontSize=18;exitX=1;exitY=0.5;exitDx=0;exitDy=0;entryX=0;entryY=0.5;entryDx=0;entryDy=0;edgeStyle=orthogonalEdgeStyle;" edge="1" parent="1" source="2VdCbxfkRbpIIBaNWqWR-10" target="2VdCbxfkRbpIIBaNWqWR-4">
          <mxGeometry width="50" height="50" relative="1" as="geometry">
            <mxPoint x="370" y="630" as="sourcePoint" />
            <mxPoint x="420" y="580" as="targetPoint" />
          </mxGeometry>
        </mxCell>
        <mxCell id="2VdCbxfkRbpIIBaNWqWR-16" value="" style="endArrow=none;html=1;rounded=0;fontSize=18;exitX=1;exitY=0.5;exitDx=0;exitDy=0;entryX=0;entryY=0.5;entryDx=0;entryDy=0;edgeStyle=orthogonalEdgeStyle;" edge="1" parent="1" source="2VdCbxfkRbpIIBaNWqWR-11" target="2VdCbxfkRbpIIBaNWqWR-4">
          <mxGeometry width="50" height="50" relative="1" as="geometry">
            <mxPoint x="50" y="660" as="sourcePoint" />
            <mxPoint x="100" y="610" as="targetPoint" />
          </mxGeometry>
        </mxCell>
        <mxCell id="2VdCbxfkRbpIIBaNWqWR-17" value="" style="endArrow=none;html=1;rounded=0;fontSize=18;exitX=1;exitY=0.5;exitDx=0;exitDy=0;entryX=0;entryY=0.5;entryDx=0;entryDy=0;" edge="1" parent="1" source="2VdCbxfkRbpIIBaNWqWR-12" target="2VdCbxfkRbpIIBaNWqWR-5">
          <mxGeometry width="50" height="50" relative="1" as="geometry">
            <mxPoint x="50" y="810" as="sourcePoint" />
            <mxPoint x="100" y="760" as="targetPoint" />
          </mxGeometry>
        </mxCell>
        <mxCell id="2VdCbxfkRbpIIBaNWqWR-18" value="" style="endArrow=none;html=1;rounded=0;fontSize=18;exitX=1;exitY=0.5;exitDx=0;exitDy=0;entryX=0;entryY=0.5;entryDx=0;entryDy=0;edgeStyle=orthogonalEdgeStyle;" edge="1" parent="1" source="2VdCbxfkRbpIIBaNWqWR-4" target="2VdCbxfkRbpIIBaNWqWR-3">
          <mxGeometry width="50" height="50" relative="1" as="geometry">
            <mxPoint x="370" y="630" as="sourcePoint" />
            <mxPoint x="420" y="580" as="targetPoint" />
          </mxGeometry>
        </mxCell>
        <mxCell id="2VdCbxfkRbpIIBaNWqWR-19" value="" style="endArrow=none;html=1;rounded=0;fontSize=18;exitX=1;exitY=0.5;exitDx=0;exitDy=0;entryX=0;entryY=0.5;entryDx=0;entryDy=0;edgeStyle=orthogonalEdgeStyle;" edge="1" parent="1" source="2VdCbxfkRbpIIBaNWqWR-5" target="2VdCbxfkRbpIIBaNWqWR-3">
          <mxGeometry width="50" height="50" relative="1" as="geometry">
            <mxPoint x="370" y="630" as="sourcePoint" />
            <mxPoint x="420" y="580" as="targetPoint" />
          </mxGeometry>
        </mxCell>
        <mxCell id="2VdCbxfkRbpIIBaNWqWR-20" value="" style="endArrow=none;html=1;rounded=0;fontSize=18;exitX=1;exitY=0.5;exitDx=0;exitDy=0;entryX=0;entryY=0.5;entryDx=0;entryDy=0;" edge="1" parent="1" source="2VdCbxfkRbpIIBaNWqWR-3" target="2VdCbxfkRbpIIBaNWqWR-2">
          <mxGeometry width="50" height="50" relative="1" as="geometry">
            <mxPoint x="370" y="630" as="sourcePoint" />
            <mxPoint x="420" y="580" as="targetPoint" />
          </mxGeometry>
        </mxCell>
        <mxCell id="2VdCbxfkRbpIIBaNWqWR-94" style="edgeStyle=orthogonalEdgeStyle;rounded=0;orthogonalLoop=1;jettySize=auto;html=1;exitX=1;exitY=0.5;exitDx=0;exitDy=0;entryX=0;entryY=0.5;entryDx=0;entryDy=0;fontSize=18;endArrow=none;endFill=0;strokeWidth=1;" edge="1" parent="1" target="2VdCbxfkRbpIIBaNWqWR-22">
          <mxGeometry relative="1" as="geometry">
            <mxPoint x="706" y="650" as="sourcePoint" />
          </mxGeometry>
        </mxCell>
        <mxCell id="2VdCbxfkRbpIIBaNWqWR-95" style="edgeStyle=orthogonalEdgeStyle;rounded=0;orthogonalLoop=1;jettySize=auto;html=1;exitX=1;exitY=0.5;exitDx=0;exitDy=0;entryX=0;entryY=0.5;entryDx=0;entryDy=0;fontSize=18;endArrow=none;endFill=0;strokeWidth=1;" edge="1" parent="1" target="2VdCbxfkRbpIIBaNWqWR-52">
          <mxGeometry relative="1" as="geometry">
            <mxPoint x="706" y="650" as="sourcePoint" />
          </mxGeometry>
        </mxCell>
        <mxCell id="2VdCbxfkRbpIIBaNWqWR-96" style="edgeStyle=orthogonalEdgeStyle;rounded=0;orthogonalLoop=1;jettySize=auto;html=1;exitX=1;exitY=0.5;exitDx=0;exitDy=0;entryX=0;entryY=0.5;entryDx=0;entryDy=0;fontSize=18;endArrow=none;endFill=0;strokeWidth=1;" edge="1" parent="1" target="2VdCbxfkRbpIIBaNWqWR-61">
          <mxGeometry relative="1" as="geometry">
            <mxPoint x="706" y="650" as="sourcePoint" />
          </mxGeometry>
        </mxCell>
        <mxCell id="2VdCbxfkRbpIIBaNWqWR-97" style="edgeStyle=orthogonalEdgeStyle;rounded=0;orthogonalLoop=1;jettySize=auto;html=1;exitX=1;exitY=0.5;exitDx=0;exitDy=0;entryX=0;entryY=0.5;entryDx=0;entryDy=0;fontSize=18;endArrow=none;endFill=0;strokeWidth=1;" edge="1" parent="1" target="2VdCbxfkRbpIIBaNWqWR-70">
          <mxGeometry relative="1" as="geometry">
            <mxPoint x="706" y="650" as="sourcePoint" />
          </mxGeometry>
        </mxCell>
        <mxCell id="2VdCbxfkRbpIIBaNWqWR-98" style="edgeStyle=orthogonalEdgeStyle;rounded=0;orthogonalLoop=1;jettySize=auto;html=1;exitX=1;exitY=0.5;exitDx=0;exitDy=0;entryX=0;entryY=0.5;entryDx=0;entryDy=0;fontSize=18;endArrow=none;endFill=0;strokeWidth=1;" edge="1" parent="1" target="2VdCbxfkRbpIIBaNWqWR-79">
          <mxGeometry relative="1" as="geometry">
            <mxPoint x="706" y="650" as="sourcePoint" />
          </mxGeometry>
        </mxCell>
        <mxCell id="2VdCbxfkRbpIIBaNWqWR-99" style="edgeStyle=orthogonalEdgeStyle;rounded=0;orthogonalLoop=1;jettySize=auto;html=1;exitX=1;exitY=0.5;exitDx=0;exitDy=0;entryX=0;entryY=0.5;entryDx=0;entryDy=0;fontSize=18;endArrow=none;endFill=0;strokeWidth=1;" edge="1" parent="1" target="2VdCbxfkRbpIIBaNWqWR-88">
          <mxGeometry relative="1" as="geometry">
            <mxPoint x="706" y="650" as="sourcePoint" />
          </mxGeometry>
        </mxCell>
        <mxCell id="2VdCbxfkRbpIIBaNWqWR-21" value="&lt;font style=&quot;font-size: 18px&quot;&gt;业务数据&lt;/font&gt;" style="rounded=1;whiteSpace=wrap;html=1;fontSize=14;" vertex="1" parent="1">
          <mxGeometry x="620" y="630" width="100" height="40" as="geometry" />
        </mxCell>
        <mxCell id="2VdCbxfkRbpIIBaNWqWR-35" style="edgeStyle=orthogonalEdgeStyle;rounded=0;orthogonalLoop=1;jettySize=auto;html=1;exitX=1;exitY=0.5;exitDx=0;exitDy=0;entryX=0;entryY=0.5;entryDx=0;entryDy=0;fontSize=18;endArrow=none;endFill=0;strokeWidth=1;" edge="1" parent="1" source="2VdCbxfkRbpIIBaNWqWR-22" target="2VdCbxfkRbpIIBaNWqWR-29">
          <mxGeometry relative="1" as="geometry" />
        </mxCell>
        <mxCell id="2VdCbxfkRbpIIBaNWqWR-36" style="edgeStyle=orthogonalEdgeStyle;rounded=0;orthogonalLoop=1;jettySize=auto;html=1;exitX=1;exitY=0.5;exitDx=0;exitDy=0;entryX=0;entryY=0.5;entryDx=0;entryDy=0;fontSize=18;endArrow=none;endFill=0;strokeWidth=1;" edge="1" parent="1" source="2VdCbxfkRbpIIBaNWqWR-22" target="2VdCbxfkRbpIIBaNWqWR-30">
          <mxGeometry relative="1" as="geometry" />
        </mxCell>
        <mxCell id="2VdCbxfkRbpIIBaNWqWR-37" style="edgeStyle=orthogonalEdgeStyle;rounded=0;orthogonalLoop=1;jettySize=auto;html=1;exitX=1;exitY=0.5;exitDx=0;exitDy=0;entryX=0;entryY=0.5;entryDx=0;entryDy=0;fontSize=18;endArrow=none;endFill=0;strokeWidth=1;" edge="1" parent="1" source="2VdCbxfkRbpIIBaNWqWR-22" target="2VdCbxfkRbpIIBaNWqWR-31">
          <mxGeometry relative="1" as="geometry" />
        </mxCell>
        <mxCell id="2VdCbxfkRbpIIBaNWqWR-38" style="edgeStyle=orthogonalEdgeStyle;rounded=0;orthogonalLoop=1;jettySize=auto;html=1;exitX=1;exitY=0.5;exitDx=0;exitDy=0;entryX=0;entryY=0.5;entryDx=0;entryDy=0;fontSize=18;endArrow=none;endFill=0;strokeWidth=1;" edge="1" parent="1" source="2VdCbxfkRbpIIBaNWqWR-22" target="2VdCbxfkRbpIIBaNWqWR-32">
          <mxGeometry relative="1" as="geometry" />
        </mxCell>
        <mxCell id="2VdCbxfkRbpIIBaNWqWR-22" value="&lt;font style=&quot;font-size: 14px&quot;&gt;订单信息&lt;/font&gt;" style="rounded=1;whiteSpace=wrap;html=1;fontSize=18;" vertex="1" parent="1">
          <mxGeometry x="786" y="140" width="80" height="30" as="geometry" />
        </mxCell>
        <mxCell id="2VdCbxfkRbpIIBaNWqWR-29" value="&lt;font style=&quot;font-size: 14px&quot;&gt;订单id&lt;/font&gt;" style="rounded=1;whiteSpace=wrap;html=1;fontSize=18;" vertex="1" parent="1">
          <mxGeometry x="926" y="60" width="80" height="30" as="geometry" />
        </mxCell>
        <mxCell id="2VdCbxfkRbpIIBaNWqWR-30" value="&lt;font style=&quot;font-size: 14px&quot;&gt;用户id&lt;/font&gt;" style="rounded=1;whiteSpace=wrap;html=1;fontSize=18;" vertex="1" parent="1">
          <mxGeometry x="926" y="110" width="80" height="30" as="geometry" />
        </mxCell>
        <mxCell id="2VdCbxfkRbpIIBaNWqWR-31" value="&lt;font style=&quot;font-size: 14px&quot;&gt;订单状态&lt;/font&gt;" style="rounded=1;whiteSpace=wrap;html=1;fontSize=18;" vertex="1" parent="1">
          <mxGeometry x="926" y="160" width="80" height="30" as="geometry" />
        </mxCell>
        <mxCell id="2VdCbxfkRbpIIBaNWqWR-32" value="&lt;font style=&quot;font-size: 14px&quot;&gt;订单金额&lt;/font&gt;" style="rounded=1;whiteSpace=wrap;html=1;fontSize=18;" vertex="1" parent="1">
          <mxGeometry x="926" y="210" width="80" height="30" as="geometry" />
        </mxCell>
        <mxCell id="2VdCbxfkRbpIIBaNWqWR-48" style="edgeStyle=orthogonalEdgeStyle;rounded=0;orthogonalLoop=1;jettySize=auto;html=1;exitX=1;exitY=0.5;exitDx=0;exitDy=0;entryX=0;entryY=0.5;entryDx=0;entryDy=0;fontSize=18;endArrow=none;endFill=0;strokeWidth=1;" edge="1" parent="1" source="2VdCbxfkRbpIIBaNWqWR-52" target="2VdCbxfkRbpIIBaNWqWR-53">
          <mxGeometry relative="1" as="geometry" />
        </mxCell>
        <mxCell id="2VdCbxfkRbpIIBaNWqWR-49" style="edgeStyle=orthogonalEdgeStyle;rounded=0;orthogonalLoop=1;jettySize=auto;html=1;exitX=1;exitY=0.5;exitDx=0;exitDy=0;entryX=0;entryY=0.5;entryDx=0;entryDy=0;fontSize=18;endArrow=none;endFill=0;strokeWidth=1;" edge="1" parent="1" source="2VdCbxfkRbpIIBaNWqWR-52" target="2VdCbxfkRbpIIBaNWqWR-54">
          <mxGeometry relative="1" as="geometry" />
        </mxCell>
        <mxCell id="2VdCbxfkRbpIIBaNWqWR-50" style="edgeStyle=orthogonalEdgeStyle;rounded=0;orthogonalLoop=1;jettySize=auto;html=1;exitX=1;exitY=0.5;exitDx=0;exitDy=0;entryX=0;entryY=0.5;entryDx=0;entryDy=0;fontSize=18;endArrow=none;endFill=0;strokeWidth=1;" edge="1" parent="1" source="2VdCbxfkRbpIIBaNWqWR-52" target="2VdCbxfkRbpIIBaNWqWR-55">
          <mxGeometry relative="1" as="geometry" />
        </mxCell>
        <mxCell id="2VdCbxfkRbpIIBaNWqWR-51" style="edgeStyle=orthogonalEdgeStyle;rounded=0;orthogonalLoop=1;jettySize=auto;html=1;exitX=1;exitY=0.5;exitDx=0;exitDy=0;entryX=0;entryY=0.5;entryDx=0;entryDy=0;fontSize=18;endArrow=none;endFill=0;strokeWidth=1;" edge="1" parent="1" source="2VdCbxfkRbpIIBaNWqWR-52" target="2VdCbxfkRbpIIBaNWqWR-56">
          <mxGeometry relative="1" as="geometry" />
        </mxCell>
        <mxCell id="2VdCbxfkRbpIIBaNWqWR-52" value="&lt;font style=&quot;font-size: 14px&quot;&gt;商家信息&lt;/font&gt;" style="rounded=1;whiteSpace=wrap;html=1;fontSize=18;" vertex="1" parent="1">
          <mxGeometry x="786" y="340" width="80" height="30" as="geometry" />
        </mxCell>
        <mxCell id="2VdCbxfkRbpIIBaNWqWR-53" value="&lt;font style=&quot;font-size: 14px&quot;&gt;商家id&lt;/font&gt;" style="rounded=1;whiteSpace=wrap;html=1;fontSize=18;" vertex="1" parent="1">
          <mxGeometry x="926" y="260" width="80" height="30" as="geometry" />
        </mxCell>
        <mxCell id="2VdCbxfkRbpIIBaNWqWR-54" value="&lt;span style=&quot;font-size: 14px&quot;&gt;商家名称&lt;/span&gt;" style="rounded=1;whiteSpace=wrap;html=1;fontSize=18;" vertex="1" parent="1">
          <mxGeometry x="926" y="310" width="80" height="30" as="geometry" />
        </mxCell>
        <mxCell id="2VdCbxfkRbpIIBaNWqWR-55" value="&lt;font style=&quot;font-size: 14px&quot;&gt;所在城市&lt;/font&gt;" style="rounded=1;whiteSpace=wrap;html=1;fontSize=18;" vertex="1" parent="1">
          <mxGeometry x="926" y="360" width="80" height="30" as="geometry" />
        </mxCell>
        <mxCell id="2VdCbxfkRbpIIBaNWqWR-56" value="&lt;span style=&quot;font-size: 14px&quot;&gt;入驻状态&lt;/span&gt;" style="rounded=1;whiteSpace=wrap;html=1;fontSize=18;" vertex="1" parent="1">
          <mxGeometry x="926" y="410" width="80" height="30" as="geometry" />
        </mxCell>
        <mxCell id="2VdCbxfkRbpIIBaNWqWR-57" style="edgeStyle=orthogonalEdgeStyle;rounded=0;orthogonalLoop=1;jettySize=auto;html=1;exitX=1;exitY=0.5;exitDx=0;exitDy=0;entryX=0;entryY=0.5;entryDx=0;entryDy=0;fontSize=18;endArrow=none;endFill=0;strokeWidth=1;" edge="1" parent="1" source="2VdCbxfkRbpIIBaNWqWR-61" target="2VdCbxfkRbpIIBaNWqWR-62">
          <mxGeometry relative="1" as="geometry" />
        </mxCell>
        <mxCell id="2VdCbxfkRbpIIBaNWqWR-58" style="edgeStyle=orthogonalEdgeStyle;rounded=0;orthogonalLoop=1;jettySize=auto;html=1;exitX=1;exitY=0.5;exitDx=0;exitDy=0;entryX=0;entryY=0.5;entryDx=0;entryDy=0;fontSize=18;endArrow=none;endFill=0;strokeWidth=1;" edge="1" parent="1" source="2VdCbxfkRbpIIBaNWqWR-61" target="2VdCbxfkRbpIIBaNWqWR-63">
          <mxGeometry relative="1" as="geometry" />
        </mxCell>
        <mxCell id="2VdCbxfkRbpIIBaNWqWR-59" style="edgeStyle=orthogonalEdgeStyle;rounded=0;orthogonalLoop=1;jettySize=auto;html=1;exitX=1;exitY=0.5;exitDx=0;exitDy=0;entryX=0;entryY=0.5;entryDx=0;entryDy=0;fontSize=18;endArrow=none;endFill=0;strokeWidth=1;" edge="1" parent="1" source="2VdCbxfkRbpIIBaNWqWR-61" target="2VdCbxfkRbpIIBaNWqWR-64">
          <mxGeometry relative="1" as="geometry" />
        </mxCell>
        <mxCell id="2VdCbxfkRbpIIBaNWqWR-60" style="edgeStyle=orthogonalEdgeStyle;rounded=0;orthogonalLoop=1;jettySize=auto;html=1;exitX=1;exitY=0.5;exitDx=0;exitDy=0;entryX=0;entryY=0.5;entryDx=0;entryDy=0;fontSize=18;endArrow=none;endFill=0;strokeWidth=1;" edge="1" parent="1" source="2VdCbxfkRbpIIBaNWqWR-61" target="2VdCbxfkRbpIIBaNWqWR-65">
          <mxGeometry relative="1" as="geometry" />
        </mxCell>
        <mxCell id="2VdCbxfkRbpIIBaNWqWR-61" value="&lt;font style=&quot;font-size: 14px&quot;&gt;商品信息&lt;/font&gt;" style="rounded=1;whiteSpace=wrap;html=1;fontSize=18;" vertex="1" parent="1">
          <mxGeometry x="786" y="540" width="80" height="30" as="geometry" />
        </mxCell>
        <mxCell id="2VdCbxfkRbpIIBaNWqWR-62" value="&lt;font style=&quot;font-size: 14px&quot;&gt;商品id&lt;/font&gt;" style="rounded=1;whiteSpace=wrap;html=1;fontSize=18;" vertex="1" parent="1">
          <mxGeometry x="926" y="460" width="80" height="30" as="geometry" />
        </mxCell>
        <mxCell id="2VdCbxfkRbpIIBaNWqWR-63" value="&lt;span style=&quot;font-size: 14px&quot;&gt;创建用户&lt;/span&gt;" style="rounded=1;whiteSpace=wrap;html=1;fontSize=18;" vertex="1" parent="1">
          <mxGeometry x="926" y="510" width="80" height="30" as="geometry" />
        </mxCell>
        <mxCell id="2VdCbxfkRbpIIBaNWqWR-64" value="&lt;span style=&quot;font-size: 14px&quot;&gt;归属类目&lt;/span&gt;" style="rounded=1;whiteSpace=wrap;html=1;fontSize=18;" vertex="1" parent="1">
          <mxGeometry x="926" y="560" width="80" height="30" as="geometry" />
        </mxCell>
        <mxCell id="2VdCbxfkRbpIIBaNWqWR-65" value="&lt;span style=&quot;font-size: 14px&quot;&gt;spu id&lt;/span&gt;" style="rounded=1;whiteSpace=wrap;html=1;fontSize=18;" vertex="1" parent="1">
          <mxGeometry x="926" y="610" width="80" height="30" as="geometry" />
        </mxCell>
        <mxCell id="2VdCbxfkRbpIIBaNWqWR-66" style="edgeStyle=orthogonalEdgeStyle;rounded=0;orthogonalLoop=1;jettySize=auto;html=1;exitX=1;exitY=0.5;exitDx=0;exitDy=0;entryX=0;entryY=0.5;entryDx=0;entryDy=0;fontSize=18;endArrow=none;endFill=0;strokeWidth=1;" edge="1" parent="1" source="2VdCbxfkRbpIIBaNWqWR-70" target="2VdCbxfkRbpIIBaNWqWR-71">
          <mxGeometry relative="1" as="geometry" />
        </mxCell>
        <mxCell id="2VdCbxfkRbpIIBaNWqWR-67" style="edgeStyle=orthogonalEdgeStyle;rounded=0;orthogonalLoop=1;jettySize=auto;html=1;exitX=1;exitY=0.5;exitDx=0;exitDy=0;entryX=0;entryY=0.5;entryDx=0;entryDy=0;fontSize=18;endArrow=none;endFill=0;strokeWidth=1;" edge="1" parent="1" source="2VdCbxfkRbpIIBaNWqWR-70" target="2VdCbxfkRbpIIBaNWqWR-72">
          <mxGeometry relative="1" as="geometry" />
        </mxCell>
        <mxCell id="2VdCbxfkRbpIIBaNWqWR-68" style="edgeStyle=orthogonalEdgeStyle;rounded=0;orthogonalLoop=1;jettySize=auto;html=1;exitX=1;exitY=0.5;exitDx=0;exitDy=0;entryX=0;entryY=0.5;entryDx=0;entryDy=0;fontSize=18;endArrow=none;endFill=0;strokeWidth=1;" edge="1" parent="1" source="2VdCbxfkRbpIIBaNWqWR-70" target="2VdCbxfkRbpIIBaNWqWR-73">
          <mxGeometry relative="1" as="geometry" />
        </mxCell>
        <mxCell id="2VdCbxfkRbpIIBaNWqWR-69" style="edgeStyle=orthogonalEdgeStyle;rounded=0;orthogonalLoop=1;jettySize=auto;html=1;exitX=1;exitY=0.5;exitDx=0;exitDy=0;entryX=0;entryY=0.5;entryDx=0;entryDy=0;fontSize=18;endArrow=none;endFill=0;strokeWidth=1;" edge="1" parent="1" source="2VdCbxfkRbpIIBaNWqWR-70" target="2VdCbxfkRbpIIBaNWqWR-74">
          <mxGeometry relative="1" as="geometry" />
        </mxCell>
        <mxCell id="2VdCbxfkRbpIIBaNWqWR-70" value="&lt;font style=&quot;font-size: 14px&quot;&gt;阿姨信息&lt;/font&gt;" style="rounded=1;whiteSpace=wrap;html=1;fontSize=18;" vertex="1" parent="1">
          <mxGeometry x="786" y="740" width="80" height="30" as="geometry" />
        </mxCell>
        <mxCell id="2VdCbxfkRbpIIBaNWqWR-71" value="&lt;span style=&quot;font-size: 14px&quot;&gt;阿姨id&lt;/span&gt;" style="rounded=1;whiteSpace=wrap;html=1;fontSize=18;" vertex="1" parent="1">
          <mxGeometry x="926" y="660" width="80" height="30" as="geometry" />
        </mxCell>
        <mxCell id="2VdCbxfkRbpIIBaNWqWR-72" value="&lt;span style=&quot;font-size: 14px&quot;&gt;注册时间&lt;/span&gt;" style="rounded=1;whiteSpace=wrap;html=1;fontSize=18;" vertex="1" parent="1">
          <mxGeometry x="926" y="710" width="80" height="30" as="geometry" />
        </mxCell>
        <mxCell id="2VdCbxfkRbpIIBaNWqWR-73" value="&lt;span style=&quot;font-size: 14px&quot;&gt;服务城市&lt;/span&gt;" style="rounded=1;whiteSpace=wrap;html=1;fontSize=18;" vertex="1" parent="1">
          <mxGeometry x="926" y="760" width="80" height="30" as="geometry" />
        </mxCell>
        <mxCell id="2VdCbxfkRbpIIBaNWqWR-74" value="&lt;span style=&quot;font-size: 14px&quot;&gt;服务类目&lt;/span&gt;" style="rounded=1;whiteSpace=wrap;html=1;fontSize=18;" vertex="1" parent="1">
          <mxGeometry x="926" y="810" width="80" height="30" as="geometry" />
        </mxCell>
        <mxCell id="2VdCbxfkRbpIIBaNWqWR-75" style="edgeStyle=orthogonalEdgeStyle;rounded=0;orthogonalLoop=1;jettySize=auto;html=1;exitX=1;exitY=0.5;exitDx=0;exitDy=0;entryX=0;entryY=0.5;entryDx=0;entryDy=0;fontSize=18;endArrow=none;endFill=0;strokeWidth=1;" edge="1" parent="1" source="2VdCbxfkRbpIIBaNWqWR-79" target="2VdCbxfkRbpIIBaNWqWR-80">
          <mxGeometry relative="1" as="geometry" />
        </mxCell>
        <mxCell id="2VdCbxfkRbpIIBaNWqWR-76" style="edgeStyle=orthogonalEdgeStyle;rounded=0;orthogonalLoop=1;jettySize=auto;html=1;exitX=1;exitY=0.5;exitDx=0;exitDy=0;entryX=0;entryY=0.5;entryDx=0;entryDy=0;fontSize=18;endArrow=none;endFill=0;strokeWidth=1;" edge="1" parent="1" source="2VdCbxfkRbpIIBaNWqWR-79" target="2VdCbxfkRbpIIBaNWqWR-81">
          <mxGeometry relative="1" as="geometry" />
        </mxCell>
        <mxCell id="2VdCbxfkRbpIIBaNWqWR-77" style="edgeStyle=orthogonalEdgeStyle;rounded=0;orthogonalLoop=1;jettySize=auto;html=1;exitX=1;exitY=0.5;exitDx=0;exitDy=0;entryX=0;entryY=0.5;entryDx=0;entryDy=0;fontSize=18;endArrow=none;endFill=0;strokeWidth=1;" edge="1" parent="1" source="2VdCbxfkRbpIIBaNWqWR-79" target="2VdCbxfkRbpIIBaNWqWR-82">
          <mxGeometry relative="1" as="geometry" />
        </mxCell>
        <mxCell id="2VdCbxfkRbpIIBaNWqWR-78" style="edgeStyle=orthogonalEdgeStyle;rounded=0;orthogonalLoop=1;jettySize=auto;html=1;exitX=1;exitY=0.5;exitDx=0;exitDy=0;entryX=0;entryY=0.5;entryDx=0;entryDy=0;fontSize=18;endArrow=none;endFill=0;strokeWidth=1;" edge="1" parent="1" source="2VdCbxfkRbpIIBaNWqWR-79" target="2VdCbxfkRbpIIBaNWqWR-83">
          <mxGeometry relative="1" as="geometry" />
        </mxCell>
        <mxCell id="2VdCbxfkRbpIIBaNWqWR-79" value="&lt;font style=&quot;font-size: 14px&quot;&gt;派单信息&lt;/font&gt;" style="rounded=1;whiteSpace=wrap;html=1;fontSize=18;" vertex="1" parent="1">
          <mxGeometry x="786" y="940" width="80" height="30" as="geometry" />
        </mxCell>
        <mxCell id="2VdCbxfkRbpIIBaNWqWR-80" value="&lt;span style=&quot;font-size: 14px&quot;&gt;订单id&lt;/span&gt;" style="rounded=1;whiteSpace=wrap;html=1;fontSize=18;" vertex="1" parent="1">
          <mxGeometry x="926" y="860" width="80" height="30" as="geometry" />
        </mxCell>
        <mxCell id="2VdCbxfkRbpIIBaNWqWR-81" value="&lt;span style=&quot;font-size: 14px&quot;&gt;阿姨id&lt;/span&gt;" style="rounded=1;whiteSpace=wrap;html=1;fontSize=18;" vertex="1" parent="1">
          <mxGeometry x="926" y="910" width="80" height="30" as="geometry" />
        </mxCell>
        <mxCell id="2VdCbxfkRbpIIBaNWqWR-82" value="&lt;span style=&quot;font-size: 14px&quot;&gt;签到时间&lt;/span&gt;" style="rounded=1;whiteSpace=wrap;html=1;fontSize=18;" vertex="1" parent="1">
          <mxGeometry x="926" y="960" width="80" height="30" as="geometry" />
        </mxCell>
        <mxCell id="2VdCbxfkRbpIIBaNWqWR-83" value="&lt;span style=&quot;font-size: 14px&quot;&gt;签退时间&lt;/span&gt;" style="rounded=1;whiteSpace=wrap;html=1;fontSize=18;" vertex="1" parent="1">
          <mxGeometry x="926" y="1010" width="80" height="30" as="geometry" />
        </mxCell>
        <mxCell id="2VdCbxfkRbpIIBaNWqWR-84" style="edgeStyle=orthogonalEdgeStyle;rounded=0;orthogonalLoop=1;jettySize=auto;html=1;exitX=1;exitY=0.5;exitDx=0;exitDy=0;entryX=0;entryY=0.5;entryDx=0;entryDy=0;fontSize=18;endArrow=none;endFill=0;strokeWidth=1;" edge="1" parent="1" source="2VdCbxfkRbpIIBaNWqWR-88" target="2VdCbxfkRbpIIBaNWqWR-89">
          <mxGeometry relative="1" as="geometry" />
        </mxCell>
        <mxCell id="2VdCbxfkRbpIIBaNWqWR-85" style="edgeStyle=orthogonalEdgeStyle;rounded=0;orthogonalLoop=1;jettySize=auto;html=1;exitX=1;exitY=0.5;exitDx=0;exitDy=0;entryX=0;entryY=0.5;entryDx=0;entryDy=0;fontSize=18;endArrow=none;endFill=0;strokeWidth=1;" edge="1" parent="1" source="2VdCbxfkRbpIIBaNWqWR-88" target="2VdCbxfkRbpIIBaNWqWR-90">
          <mxGeometry relative="1" as="geometry" />
        </mxCell>
        <mxCell id="2VdCbxfkRbpIIBaNWqWR-86" style="edgeStyle=orthogonalEdgeStyle;rounded=0;orthogonalLoop=1;jettySize=auto;html=1;exitX=1;exitY=0.5;exitDx=0;exitDy=0;entryX=0;entryY=0.5;entryDx=0;entryDy=0;fontSize=18;endArrow=none;endFill=0;strokeWidth=1;" edge="1" parent="1" source="2VdCbxfkRbpIIBaNWqWR-88" target="2VdCbxfkRbpIIBaNWqWR-91">
          <mxGeometry relative="1" as="geometry" />
        </mxCell>
        <mxCell id="2VdCbxfkRbpIIBaNWqWR-87" style="edgeStyle=orthogonalEdgeStyle;rounded=0;orthogonalLoop=1;jettySize=auto;html=1;exitX=1;exitY=0.5;exitDx=0;exitDy=0;entryX=0;entryY=0.5;entryDx=0;entryDy=0;fontSize=18;endArrow=none;endFill=0;strokeWidth=1;" edge="1" parent="1" source="2VdCbxfkRbpIIBaNWqWR-88" target="2VdCbxfkRbpIIBaNWqWR-92">
          <mxGeometry relative="1" as="geometry" />
        </mxCell>
        <mxCell id="2VdCbxfkRbpIIBaNWqWR-88" value="&lt;font style=&quot;font-size: 14px&quot;&gt;优惠券信息&lt;/font&gt;" style="rounded=1;whiteSpace=wrap;html=1;fontSize=18;" vertex="1" parent="1">
          <mxGeometry x="786" y="1140" width="80" height="30" as="geometry" />
        </mxCell>
        <mxCell id="2VdCbxfkRbpIIBaNWqWR-89" value="&lt;span style=&quot;font-size: 14px&quot;&gt;订单id&lt;/span&gt;" style="rounded=1;whiteSpace=wrap;html=1;fontSize=18;" vertex="1" parent="1">
          <mxGeometry x="926" y="1060" width="80" height="30" as="geometry" />
        </mxCell>
        <mxCell id="2VdCbxfkRbpIIBaNWqWR-90" value="&lt;span style=&quot;font-size: 14px&quot;&gt;优惠券id&lt;/span&gt;" style="rounded=1;whiteSpace=wrap;html=1;fontSize=18;" vertex="1" parent="1">
          <mxGeometry x="926" y="1110" width="80" height="30" as="geometry" />
        </mxCell>
        <mxCell id="2VdCbxfkRbpIIBaNWqWR-91" value="&lt;span style=&quot;font-size: 14px&quot;&gt;优惠券Code&lt;/span&gt;" style="rounded=1;whiteSpace=wrap;html=1;fontSize=18;" vertex="1" parent="1">
          <mxGeometry x="926" y="1160" width="80" height="30" as="geometry" />
        </mxCell>
        <mxCell id="2VdCbxfkRbpIIBaNWqWR-92" value="&lt;span style=&quot;font-size: 14px&quot;&gt;优惠券状态&lt;/span&gt;" style="rounded=1;whiteSpace=wrap;html=1;fontSize=18;" vertex="1" parent="1">
          <mxGeometry x="926" y="1210" width="80" height="30" as="geometry" />
        </mxCell>
      </root>
    </mxGraphModel>
  </diagram>
</mxfile>
